<mxfile host="Electron" modified="2023-07-25T05:39:05.414Z" agent="Mozilla/5.0 (Windows NT 10.0; Win64; x64) AppleWebKit/537.36 (KHTML, like Gecko) draw.io/21.6.5 Chrome/114.0.5735.243 Electron/25.3.1 Safari/537.36" etag="r_bg1HhPRTuFCmPK5vV5" version="21.6.5" type="device">
  <diagram name="Страница 1" id="7Qaxkj33wWd-OxZL98rE">
    <mxGraphModel dx="1050" dy="638" grid="1" gridSize="10" guides="1" tooltips="1" connect="1" arrows="1" fold="1" page="1" pageScale="1" pageWidth="827" pageHeight="1169" math="0" shadow="0">
      <root>
        <mxCell id="0" />
        <mxCell id="1" parent="0" />
        <mxCell id="EiTji0LmP5kA93JIjU3S-1" value="Model" style="html=1;whiteSpace=wrap;" vertex="1" parent="1">
          <mxGeometry x="160" y="270" width="110" height="50" as="geometry" />
        </mxCell>
        <mxCell id="EiTji0LmP5kA93JIjU3S-2" value="View" style="html=1;whiteSpace=wrap;" vertex="1" parent="1">
          <mxGeometry x="450" y="270" width="110" height="50" as="geometry" />
        </mxCell>
        <mxCell id="EiTji0LmP5kA93JIjU3S-3" value="Presenter" style="html=1;whiteSpace=wrap;" vertex="1" parent="1">
          <mxGeometry x="304" y="120" width="110" height="50" as="geometry" />
        </mxCell>
        <mxCell id="EiTji0LmP5kA93JIjU3S-4" value="" style="endArrow=open;endFill=1;endSize=12;html=1;rounded=0;exitX=0.75;exitY=0;exitDx=0;exitDy=0;entryX=1;entryY=0.5;entryDx=0;entryDy=0;" edge="1" parent="1" source="EiTji0LmP5kA93JIjU3S-2" target="EiTji0LmP5kA93JIjU3S-3">
          <mxGeometry width="160" relative="1" as="geometry">
            <mxPoint x="480" y="210" as="sourcePoint" />
            <mxPoint x="640" y="210" as="targetPoint" />
          </mxGeometry>
        </mxCell>
        <mxCell id="EiTji0LmP5kA93JIjU3S-5" value="" style="endArrow=open;endFill=1;endSize=12;html=1;rounded=0;" edge="1" parent="1" source="EiTji0LmP5kA93JIjU3S-3" target="EiTji0LmP5kA93JIjU3S-2">
          <mxGeometry width="160" relative="1" as="geometry">
            <mxPoint x="370.0033333333333" y="170" as="sourcePoint" />
            <mxPoint x="467.33666666666676" y="270" as="targetPoint" />
          </mxGeometry>
        </mxCell>
        <mxCell id="EiTji0LmP5kA93JIjU3S-6" value="" style="endArrow=open;endFill=1;endSize=12;html=1;rounded=0;exitX=0.25;exitY=1;exitDx=0;exitDy=0;entryX=0.75;entryY=0;entryDx=0;entryDy=0;" edge="1" parent="1" source="EiTji0LmP5kA93JIjU3S-3" target="EiTji0LmP5kA93JIjU3S-1">
          <mxGeometry width="160" relative="1" as="geometry">
            <mxPoint x="200" y="540" as="sourcePoint" />
            <mxPoint x="360" y="540" as="targetPoint" />
          </mxGeometry>
        </mxCell>
        <mxCell id="EiTji0LmP5kA93JIjU3S-11" value="User&lt;br&gt;Event" style="text;align=center;fontStyle=1;verticalAlign=middle;spacingLeft=3;spacingRight=3;strokeColor=none;rotatable=0;points=[[0,0.5],[1,0.5]];portConstraint=eastwest;html=1;" vertex="1" parent="1">
          <mxGeometry x="465" y="180" width="80" height="26" as="geometry" />
        </mxCell>
        <mxCell id="EiTji0LmP5kA93JIjU3S-12" value="Update UI" style="text;align=center;fontStyle=1;verticalAlign=middle;spacingLeft=3;spacingRight=3;strokeColor=none;rotatable=0;points=[[0,0.5],[1,0.5]];portConstraint=eastwest;html=1;" vertex="1" parent="1">
          <mxGeometry x="360" y="210" width="80" height="26" as="geometry" />
        </mxCell>
        <mxCell id="EiTji0LmP5kA93JIjU3S-13" value="" style="endArrow=open;endFill=1;endSize=12;html=1;rounded=0;exitX=0.25;exitY=0;exitDx=0;exitDy=0;entryX=0;entryY=0.25;entryDx=0;entryDy=0;" edge="1" parent="1" source="EiTji0LmP5kA93JIjU3S-1" target="EiTji0LmP5kA93JIjU3S-3">
          <mxGeometry width="160" relative="1" as="geometry">
            <mxPoint x="140" y="190" as="sourcePoint" />
            <mxPoint x="300" y="190" as="targetPoint" />
          </mxGeometry>
        </mxCell>
        <mxCell id="EiTji0LmP5kA93JIjU3S-14" value="Model&lt;br&gt;Changed" style="text;align=center;fontStyle=1;verticalAlign=middle;spacingLeft=3;spacingRight=3;strokeColor=none;rotatable=0;points=[[0,0.5],[1,0.5]];portConstraint=eastwest;html=1;" vertex="1" parent="1">
          <mxGeometry x="170" y="184" width="80" height="26" as="geometry" />
        </mxCell>
        <mxCell id="EiTji0LmP5kA93JIjU3S-15" value="Update&lt;br&gt;Model" style="text;align=center;fontStyle=1;verticalAlign=middle;spacingLeft=3;spacingRight=3;strokeColor=none;rotatable=0;points=[[0,0.5],[1,0.5]];portConstraint=eastwest;html=1;" vertex="1" parent="1">
          <mxGeometry x="270" y="220" width="80" height="26" as="geometry" />
        </mxCell>
      </root>
    </mxGraphModel>
  </diagram>
</mxfile>
